<svg xmlns="http://www.w3.org/2000/svg" width="199" height="98" fill="none" viewBox="0 0 199 98"><path fill="#979797" d="M21.751 54.1213L21.0439 53.4142L21.0439 53.4142L21.751 54.1213ZM25.9937 54.1213L26.7008 53.4142L26.7008 53.4142L25.9937 54.1213ZM42.2023 59.9469L41.4952 59.2398L41.4952 59.2398L42.2023 59.9469ZM45.0308 59.9469L44.3236 60.654L44.3236 60.654L45.0308 59.9469ZM106.141 1.58578L105.434 2.29289L105.434 2.29289L106.141 1.58578ZM124.871 20.3152L125.578 19.6081L125.578 19.6081L124.871 20.3152ZM99.8654 96.2617L99.1583 96.9689L99.8654 97.676L100.573 96.9689L99.8654 96.2617ZM139.487 36.1309V35.1309H138.487V36.1309H139.487ZM161.33 36V37H163.742L162.037 35.2932L161.33 36ZM139.51 36H138.51V37H139.51V36ZM156.351 31.0165L157.058 30.3097L157.058 30.3097L156.351 31.0165ZM2 36C2 35.4477 2.44772 35 3 35V33C1.34315 33 0 34.3431 0 36H2ZM3 35H58V33H3V35ZM58 35C58.5523 35 59 35.4477 59 36H61C61 34.3431 59.6569 33 58 33V35ZM59 36V71H61V36H59ZM59 71C59 71.5523 58.5523 72 58 72V74C59.6569 74 61 72.6569 61 71H59ZM58 72H3V74H58V72ZM3 72C2.44772 72 2 71.5523 2 71H0C0 72.6569 1.34314 74 3 74V72ZM2 71V36H0V71H2ZM4.16374 73.1228L22.4581 54.8284L21.0439 53.4142L2.74953 71.7086L4.16374 73.1228ZM25.2866 54.8284L43.5809 73.1228L44.9952 71.7086L26.7008 53.4142L25.2866 54.8284ZM22.4581 54.8284C23.2392 54.0474 24.5055 54.0474 25.2866 54.8284L26.7008 53.4142C25.1387 51.8521 22.606 51.8521 21.0439 53.4142L22.4581 54.8284ZM48.0858 51.1717C51.4469 51.1717 54.1717 48.4469 54.1717 45.0858H52.1717C52.1717 47.3424 50.3424 49.1717 48.0858 49.1717V51.1717ZM54.1717 45.0858C54.1717 41.7247 51.4469 39 48.0858 39V41C50.3424 41 52.1717 42.8293 52.1717 45.0858H54.1717ZM48.0858 39C44.7247 39 42 41.7247 42 45.0858H44C44 42.8293 45.8293 41 48.0858 41V39ZM42 45.0858C42 48.4469 44.7247 51.1717 48.0858 51.1717V49.1717C45.8293 49.1717 44 47.3424 44 45.0858H42ZM37.8563 65.7071L42.9094 60.654L41.4952 59.2398L36.4421 64.2929L37.8563 65.7071ZM44.3236 60.654L56.1401 72.4704L57.5543 71.0562L45.7379 59.2398L44.3236 60.654ZM42.9094 60.654C43.3 60.2635 43.9331 60.2635 44.3236 60.654L45.7379 59.2398C44.5663 58.0682 42.6668 58.0682 41.4952 59.2398L42.9094 60.654ZM104.556 1.37069V20.0223H106.556V1.37069H104.556ZM107.556 23.0223H124.164V21.0223H107.556V23.0223ZM125.578 19.6081L106.848 0.878678L105.434 2.29289L124.164 21.0223L125.578 19.6081ZM104.727 0H74.8173V2H104.727V0ZM71.8173 3V70.4157H73.8173V3H71.8173ZM74.8173 73.4157H94.6462V71.4157H74.8173V73.4157ZM71.8173 70.4157C71.8173 72.0726 73.1604 73.4157 74.8173 73.4157V71.4157C74.265 71.4157 73.8173 70.968 73.8173 70.4157H71.8173ZM74.8173 0C73.1604 0 71.8173 1.34315 71.8173 3H73.8173C73.8173 2.44772 74.265 2 74.8173 2V0ZM106.848 0.878678C106.286 0.31607 105.523 0 104.727 0V2C104.992 2 105.247 2.10535 105.434 2.29289L106.848 0.878678ZM124.164 23.0223C125.945 23.0223 126.838 20.8681 125.578 19.6081L124.164 21.0223L124.164 21.0223V23.0223ZM104.556 20.0223C104.556 21.6792 105.899 23.0223 107.556 23.0223V21.0223C107.003 21.0223 106.556 20.5746 106.556 20.0223H104.556ZM104.511 73.4157H124.645V71.4157H104.511V73.4157ZM127.645 70.4157V26H125.645V70.4157H127.645ZM124.645 73.4157C126.302 73.4157 127.645 72.0726 127.645 70.4157H125.645C125.645 70.968 125.197 71.4157 124.645 71.4157V73.4157ZM98.8654 57.6422V95.5183H100.865V57.6422H98.8654ZM87.3581 85.1686L99.1583 96.9689L100.573 95.5546L88.7723 83.7544L87.3581 85.1686ZM100.573 96.9689L112.373 85.1686L110.959 83.7544L99.1583 95.5546L100.573 96.9689ZM138.487 36.1309V70.5331H140.487V36.1309H138.487ZM141.487 73.5331H195.86V71.5331H141.487V73.5331ZM198.86 70.5331V38.1309H196.86V70.5331H198.86ZM195.86 35.1309H139.487V37.1309H195.86V35.1309ZM198.86 38.1309C198.86 36.474 197.517 35.1309 195.86 35.1309V37.1309C196.412 37.1309 196.86 37.5786 196.86 38.1309H198.86ZM195.86 73.5331C197.517 73.5331 198.86 72.1899 198.86 70.5331H196.86C196.86 71.0854 196.412 71.5331 195.86 71.5331V73.5331ZM138.487 70.5331C138.487 72.1899 139.83 73.5331 141.487 73.5331V71.5331C140.935 71.5331 140.487 71.0854 140.487 70.5331H138.487ZM162.037 35.2932L157.058 30.3097L155.644 31.7232L160.622 36.7068L162.037 35.2932ZM153.521 28.8435H141.51V30.8435H153.521V28.8435ZM138.51 31.8435V36H140.51V31.8435H138.51ZM139.51 37H161.33V35H139.51V37ZM141.51 28.8435C139.854 28.8435 138.51 30.1867 138.51 31.8435H140.51C140.51 31.2912 140.958 30.8435 141.51 30.8435V28.8435ZM157.058 30.3097C156.121 29.371 154.848 28.8435 153.521 28.8435V30.8435C154.317 30.8435 155.081 31.16 155.644 31.7232L157.058 30.3097Z"/></svg>