<svg xmlns="http://www.w3.org/2000/svg" width="14" height="12" fill="none" viewBox="0 0 14 12"><path fill="#B9B9B9" fill-rule="evenodd" d="M12.8983 9.94268C12.8983 10.1666 12.8204 10.3574 12.6633 10.5139C12.5068 10.6704 12.3165 10.7489 12.0921 10.7489H1.88129C1.65724 10.7489 1.46708 10.6704 1.31002 10.5139C1.15349 10.3574 1.07489 10.1666 1.07489 9.94268V1.88129C1.07489 1.65724 1.15349 1.46708 1.31002 1.31002C1.46656 1.15349 1.65724 1.07502 1.88129 1.07502H4.5682C4.79212 1.07502 4.98242 1.15349 5.13947 1.31002C5.29588 1.46708 5.37447 1.65724 5.37447 1.88129V2.41867C5.37447 2.64272 5.45293 2.83289 5.60947 2.98942C5.76653 3.14648 5.95669 3.22494 6.18074 3.22494H12.0921C12.3165 3.22494 12.5068 3.30302 12.6633 3.45994C12.8204 3.61648 12.8983 3.80677 12.8983 4.03069V9.94268ZM13.4192 2.70405C13.0499 2.33467 12.6074 2.14992 12.0921 2.14992H6.44949V1.88129C6.44949 1.36594 6.26423 0.92351 5.89485 0.554132C5.52547 0.184753 5.08304 0 4.5682 0H1.88129C1.36594 0 0.92351 0.184753 0.554003 0.554132C0.184754 0.92351 0 1.36594 0 1.88129V9.94268C0 10.4575 0.184754 10.8999 0.554003 11.2693C0.92351 11.6387 1.36594 11.824 1.88129 11.824H12.0921C12.6074 11.824 13.0499 11.6387 13.4192 11.2693C13.7886 10.8999 13.9734 10.4575 13.9734 9.94268V4.03069C13.9734 3.51586 13.7886 3.07343 13.4192 2.70405Z" clip-rule="evenodd"/></svg>