<svg width="10" height="10" viewBox="0 0 10 10" fill="none" xmlns="http://www.w3.org/2000/svg">
<path d="M4.69478 9.38955H4.19478V9.88955H4.69478V9.38955ZM4.69478 5.69478H5.19478V5.19478H4.69478V5.69478ZM5.69478 9.38955V9.88955H6.19478V9.38955H5.69478ZM5.69478 5.69478V5.19478H5.19478V5.69478H5.69478ZM9.38955 5.69478V6.19478H9.88955V5.69478H9.38955ZM9.38955 4.69478H9.88955V4.19478H9.38955V4.69478ZM5.69478 4.69478H5.19478V5.19478H5.69478V4.69478ZM5.69478 1H6.19478V0.5H5.69478V1ZM4.69478 1V0.5H4.19478V1H4.69478ZM4.69478 4.69478V5.19478H5.19478V4.69478H4.69478ZM1 4.69478V4.19478H0.5V4.69478H1ZM1 5.69478H0.5V6.19478H1V5.69478ZM5.19478 9.38955V5.69478H4.19478V9.38955H5.19478ZM5.69478 8.88955H4.69478V9.88955H5.69478V8.88955ZM5.19478 5.69478V9.38955H6.19478V5.69478H5.19478ZM5.69478 6.19478H9.38955V5.19478H5.69478V6.19478ZM9.88955 5.69478V4.69478H8.88955V5.69478H9.88955ZM9.38955 4.19478H5.69478V5.19478H9.38955V4.19478ZM5.19478 1V4.69478H6.19478V1H5.19478ZM4.69478 1.5H5.69478V0.5H4.69478V1.5ZM5.19478 4.69478V1H4.19478V4.69478H5.19478ZM4.69478 4.19478H1V5.19478H4.69478V4.19478ZM0.5 4.69478V5.69478H1.5V4.69478H0.5ZM1 6.19478H4.69478V5.19478H1V6.19478Z" fill="white"/>
</svg>
