<?xml version="1.0" encoding="utf-8"?>
<!-- Generator: Adobe Illustrator 23.0.1, SVG Export Plug-In . SVG Version: 6.00 Build 0)  -->
<svg version="1.1" id="Layer_1" xmlns="http://www.w3.org/2000/svg" xmlns:xlink="http://www.w3.org/1999/xlink" x="0px" y="0px"
	 viewBox="0 0 13 12" style="enable-background:new 0 0 13 12;" xml:space="preserve">
<style type="text/css">
	.st0{opacity:0.82;fill:#FF6464;}
	.st1{display:none;opacity:0.57;}
	.st2{display:inline;fill:none;stroke:#FFFFFF;}
	.st3{fill:#FFFFFF;}
</style>
<rect class="st0" width="13" height="12"/>
<g class="st1">
	<path class="st2" d="M10.7,1.8l-8.4,8.4"/>
	<path class="st2" d="M2.3,1.8l8.4,8.4"/>
</g>
<g>
	<path class="st3" d="M7.5,8.2C7.5,8.2,7.5,8.2,7.5,8.2c0.1,0,0.2-0.1,0.2-0.2l0.2-2.8c0-0.1-0.1-0.2-0.2-0.2S7.5,5,7.5,5.1L7.3,7.9
		C7.3,8.1,7.4,8.2,7.5,8.2z"/>
	<path class="st3" d="M6.5,8.2c0.1,0,0.2-0.1,0.2-0.2V5.2c0-0.1-0.1-0.2-0.2-0.2C6.4,4.9,6.3,5,6.3,5.2V8C6.3,8.1,6.4,8.2,6.5,8.2z"
		/>
	<path class="st3" d="M5.5,8.2C5.5,8.2,5.5,8.2,5.5,8.2c0.1,0,0.2-0.1,0.2-0.2L5.6,5.1c0-0.1-0.1-0.2-0.2-0.2C5.2,5,5.1,5.1,5.1,5.2
		L5.3,8C5.3,8.1,5.4,8.2,5.5,8.2z"/>
	<path class="st3" d="M9.8,3.4h-2V2.6c0-0.2-0.1-0.3-0.3-0.3H5.6c-0.2,0-0.3,0.1-0.3,0.3v0.8h-2C3,3.4,2.9,3.6,2.9,3.7
		S3,4.1,3.2,4.1h0.4L4,8.9c0,0.4,0.4,0.8,0.8,0.8h3.4C8.6,9.7,9,9.4,9,8.9l0.4-4.9h0.4c0.2,0,0.3-0.1,0.3-0.3S10,3.4,9.8,3.4z
		 M5.9,3h1.2v0.5H5.9V3z M8.4,8.9C8.4,9,8.3,9,8.2,9H4.8C4.7,9,4.6,9,4.6,8.9L4.2,4.1h4.5L8.4,8.9z"/>
</g>
</svg>
