<svg xmlns="http://www.w3.org/2000/svg" xmlns:xlink="http://www.w3.org/1999/xlink" id="Layer_1" x="0" y="0" version="1.1" viewBox="0 0 1920 1080" xml:space="preserve" style="enable-background:new 0 0 1920 1080"><style type="text/css">.st0{display:none}.st1{opacity:.02;fill:#fff;enable-background:new}.st2{fill:url(#SVGID_1_)}.st3{opacity:.7}.st4{fill:#fff}</style><rect width="1920" height="1080" y="0" class="st0"/><g><g><path d="M687.6,86.7l128.6,293.5c41.7,95.2,169,113.3,235.6,33.6l35.7-42.8c24.7-29.5,30.5-70.5,15.1-105.8l0,0 c-9-20.6,8.1-43,30.4-39.8l236,34.5c50.6,7.4,73.5,67.4,40.7,106.6L937.6,931.8c-44.3,53.1-129.1,41-156.8-22.4L327.2-129.1 c-21.4-49-66.7-83.5-119.7-91.1l0,0C87.7-237.3-4.4-116.2,44.2-5.3l568.4,1297.4c67.2,153.3,272,182.6,379.5,54.2L1869.2,298 c91.5-109.4,27.4-276.8-113.8-296.9L850.9-128.1C731.1-145.3,639-24.2,687.6,86.7z" class="st1"/></g></g><linearGradient id="SVGID_1_" x1="433.212" x2="830.068" y1="306.488" y2="306.488" gradientTransform="matrix(1 0 0 1 0 236)" gradientUnits="userSpaceOnUse"><stop offset="0" style="stop-color:#59e2ff"/><stop offset="1" style="stop-color:#1da3f8"/></linearGradient><path d="M573.8,430.2l35.3,56.9c11.4,18.5,38.3,18.4,49.7,0l6.1-9.9c4.2-6.8,4.2-15.5,0-22.3l0,0	c-2.5-4,0.4-9.1,5.1-9.1l49.8,0.2c10.7,0,17.2,11.8,11.6,20.8l-80.9,130.8c-7.6,12.3-25.5,12.3-33.1,0L492.9,396.3	c-5.9-9.5-16.3-15.3-27.4-15.3l0,0c-25.3,0-40.7,27.8-27.4,49.2L594,681.7c18.4,29.7,61.6,29.7,80.1,0L824.3,439	c15.7-25.3-2.5-58-32.3-58H601.2C575.9,381,560.5,408.8,573.8,430.2z" class="st2"/><g class="st3"><g><path d="M968,659.4l-35.5-105.5h24.7l24.1,82.7h0.5l24.1-82.7h24l-35.4,105.5H968z" class="st4"/><path d="M1038.8,559c0-6.4,5.2-11.1,11.5-11.1c6.4,0,11.6,4.8,11.6,11.1s-5.2,11.2-11.6,11.2 C1044,570.2,1038.8,565.3,1038.8,559z M1039.7,578.9h21.3v80.5h-21.3V578.9z" class="st4"/><path d="M1148.8,634.8c-2.3,15.6-16.9,26-36.5,26c-24.5,0-39.5-15.7-39.5-41.3s15.1-42,38.7-42 c23.2,0,37.9,15.5,37.9,40v6.6h-55.6v1.3c0,11.6,7.5,19.4,18.8,19.4c8,0,14.4-3.8,16.4-10H1148.8L1148.8,634.8z M1094.1,610.9 h34.7c-0.4-10.5-7.2-17.4-17.1-17.4C1102,593.5,1094.8,600.6,1094.1,610.9z" class="st4"/><path d="M1251.3,659.4h-22.7l-14.8-57.3h-0.4l-14.7,57.3h-22.4l-21.5-80.5h21.5l12.4,60.1h0.4l14.5-60.1h20.5 l14.6,60.1h0.4l12.5-60.1h21.1L1251.3,659.4z" class="st4"/><path d="M1353.3,634.8c-2.3,15.6-16.9,26-36.5,26c-24.5,0-39.5-15.7-39.5-41.3s15.1-42,38.7-42 c23.2,0,37.9,15.5,37.9,40v6.6h-55.6v1.3c0,11.6,7.5,19.4,18.8,19.4c8,0,14.4-3.8,16.4-10H1353.3L1353.3,634.8z M1298.6,610.9 h34.7c-0.4-10.5-7.2-17.4-17.1-17.4C1306.5,593.5,1299.3,600.6,1298.6,610.9z" class="st4"/><path d="M1365.4,578.9h20.6v14.4h0.4c2.7-9.9,9.7-15.3,19.2-15.3c2.1,0,4.5,0.3,6,0.8v18.9c-1.8-0.8-5-1.3-7.7-1.3 c-10.8,0-17.2,6.7-17.2,18v45h-21.3V578.9L1365.4,578.9z" class="st4"/><path d="M1434.2,584.8c-4.7-4.6-7-10.4-7-17.2c0-6.9,2.3-12.6,7-17.3c4.6-4.6,10.3-6.9,17.1-6.9 c6.8,0,12.6,2.3,17.2,6.9c4.7,4.6,7,10.4,7,17.3c0,6.9-2.3,12.6-7,17.2c-4.6,4.6-10.3,6.9-17.2,6.9 C1444.6,591.8,1438.9,589.4,1434.2,584.8z M1465.5,581.8c3.8-3.8,5.7-8.6,5.7-14.2c0-5.7-1.9-10.5-5.7-14.2 c-3.8-3.8-8.5-5.7-14.1-5.7s-10.3,1.9-14.1,5.7c-3.8,3.8-5.8,8.6-5.8,14.2c0,5.7,1.9,10.4,5.8,14.2c3.8,3.8,8.5,5.7,14.1,5.7 S1461.7,585.6,1465.5,581.8z M1458.7,563.2c-0.3-1.4-1.1-2.5-2.2-3.3c-1.2-0.9-2.8-1.4-4.5-1.4c-2.4,0-4.2,0.8-5.6,2.4 c-1.4,1.6-2.1,3.8-2.1,6.6s0.7,5,2.1,6.7c1.4,1.6,3.2,2.4,5.6,2.4c3.7,0,6-1.5,6.8-4.6h4.2c-0.4,2.5-1.5,4.5-3.4,6 c-2,1.6-4.5,2.4-7.6,2.4c-3.7,0-6.6-1.2-8.8-3.5c-2.2-2.3-3.3-5.5-3.3-9.4s1.1-7,3.3-9.3c2.2-2.3,5.1-3.5,8.7-3.5 c3,0,5.6,0.8,7.6,2.5c1.9,1.6,3,3.6,3.4,6L1458.7,563.2L1458.7,563.2z" class="st4"/></g><g><path d="M1006,508h-65.3V402.5h65.3v11.8h-52.2v33.8h49.5v11.7h-49.5V496h52.2V508L1006,508z" class="st4"/><path d="M1025.5,502.4c-4.9-4.2-7.3-9.8-7.3-16.8c0-6.8,2.5-12.1,7.6-15.9c5.1-3.9,12.4-6.1,21.9-6.7l22.1-1.3V455 c0-4.9-1.6-8.6-4.7-11.2s-7.6-4-13.4-4c-4.6,0-8.4,1.1-11.6,3.3c-3.2,2.2-5.1,5.1-5.9,8.8H1022c0.2-6.6,3.1-12.2,8.8-16.7 c5.7-4.5,12.7-6.7,21-6.7c9.3,0,16.7,2.3,22.3,6.9c5.6,4.6,8.3,10.8,8.3,18.6v54h-12.1v-13.7h-0.3c-2.2,4.4-5.7,7.9-10.2,10.5 c-4.6,2.6-9.6,4-15.1,4C1036.8,508.7,1030.3,506.6,1025.5,502.4z M1063.5,492.1c4.2-3.8,6.3-8.5,6.3-14.1v-6.4l-20.6,1.3 c-12,0.7-18,5-18,12.6c0,3.6,1.5,6.6,4.5,8.8c2.9,2.2,6.9,3.3,11.8,3.3C1053.9,497.7,1059.2,495.9,1063.5,492.1z" class="st4"/><path d="M1106.2,434.9c5.4-4.2,12.4-6.4,21-6.4c8,0,14.7,2.1,20.2,6.4c5.4,4.2,8.2,9.6,8.5,16.1h-12.2 c-0.4-3.7-2.1-6.6-5.1-8.8c-3-2.1-6.9-3.2-11.8-3.2s-8.8,1-11.8,3.1s-4.5,4.9-4.5,8.3c0,5.2,4.4,8.9,13.3,11.2l12,3 c7.9,2,13.5,4.6,16.8,7.8c3.2,3.1,4.8,7.5,4.8,13.3c0,6.7-2.9,12.2-8.8,16.5c-5.8,4.3-13.2,6.4-22.4,6.4c-8.5,0-15.5-2.1-21.1-6.3 c-5.6-4.2-8.7-9.8-9.4-16.6h12.8c1.4,8.2,7.6,12.4,18.6,12.4c5.4,0,9.6-1,12.8-3.1c3.1-2,4.7-4.9,4.7-8.4c0-2.8-0.9-5-2.8-6.6 c-1.8-1.6-5-3-9.5-4.2l-13.8-3.6c-13.7-3.6-20.5-10.6-20.5-21C1098.1,444.6,1100.8,439.2,1106.2,434.9z" class="st4"/><path d="M1172.4,536.1v-10.7c1.5,0.3,3.2,0.4,5.2,0.4c3.7,0,6.6-1,8.8-2.9c2.2-2,4.1-5.4,5.7-10.1l1.5-4.7l-29.2-78.9 h13.5l22.1,65.9h0.3l22.1-65.9h13.4l-30.8,83.6c-3.4,9.1-6.9,15.3-10.7,18.7c-3.8,3.4-9.3,5-16.2,5 C1176.1,536.6,1174.2,536.4,1172.4,536.1z" class="st4"/><path d="M1313.2,508h-65.3V402.5h65.3v11.8H1261v33.8h49.5v11.7H1261V496h52.2V508z" class="st4"/><path d="M1334.5,497.7c-6.3-7.4-9.4-17.1-9.4-29.1c0-11.9,3.1-21.6,9.4-29.1c6.2-7.4,14.2-11,24-11 c11.7,0,20.1,4.5,25.1,13.5h0.3v-44.1h12.7V508h-12.1v-13.3h-0.2c-5.3,9.4-13.8,14-25.5,14C1348.9,508.7,1340.8,505,1334.5,497.7z M1344.4,447.7c-4.2,5.3-6.4,12.2-6.4,20.9c0,8.7,2.1,15.7,6.4,21c4.2,5.2,9.7,7.8,16.7,7.8c6.8,0,12.3-2.6,16.6-8 c4.2-5.3,6.4-12.2,6.4-20.8c0-8.6-2.1-15.5-6.4-20.8s-9.8-8-16.6-8C1354.2,439.8,1348.6,442.5,1344.4,447.7z" class="st4"/><path d="M1419.1,414.1c-1.6-1.6-2.4-3.4-2.4-5.6s0.8-4.1,2.4-5.7s3.4-2.3,5.6-2.3s4.1,0.8,5.7,2.3 c1.6,1.6,2.3,3.5,2.3,5.7s-0.8,4.1-2.3,5.6c-1.6,1.6-3.5,2.4-5.7,2.4S1420.7,415.7,1419.1,414.1z M1418.4,429.2h12.7V508h-12.7 V429.2z" class="st4"/><path d="M1465.9,411.5v17.8h15.3v10.5h-15.3V487c0,7,3.3,10.5,9.8,10.5c2.2,0,4-0.1,5.5-0.4v10.7 c-1.8,0.4-4.6,0.7-8.2,0.7c-7.1,0-12.2-1.6-15.3-4.8c-3-3.3-4.5-8.7-4.5-16.2v-47.8h-11v-10.5h11v-17.8L1465.9,411.5L1465.9,411.5 z" class="st4"/></g></g></svg>