<svg xmlns="http://www.w3.org/2000/svg" width="17" height="12" fill="none" viewBox="0 0 17 12"><path fill="#39B6FF" fill-rule="evenodd" d="M14.8364 7.0856L12.3621 10.1404C12.2218 10.3145 12.0226 10.4632 11.7649 10.5862C11.5067 10.7098 11.2656 10.7719 11.0411 10.7719H1.88531C1.5877 10.7719 1.43896 10.6735 1.43896 10.4769C1.43896 10.3875 1.48932 10.2751 1.59067 10.1404L4.06448 7.0856C4.21025 6.91155 4.41102 6.76436 4.66628 6.64377C4.9214 6.52331 5.16155 6.46275 5.38595 6.46275H14.5419C14.8394 6.46275 14.9877 6.56114 14.9877 6.75726C14.9877 6.85306 14.9372 6.96255 14.8364 7.0856ZM1.07732 1.88531C1.07732 1.66078 1.15595 1.47021 1.31282 1.31282C1.46969 1.15595 1.66078 1.07732 1.88531 1.07732H4.57796C4.80236 1.07732 4.99306 1.15595 5.15045 1.31282C5.30719 1.47021 5.38595 1.66078 5.38595 1.88531V2.42384C5.38595 2.64837 5.46458 2.83894 5.62145 2.99581C5.77833 3.1532 5.96941 3.23183 6.19394 3.23183H11.0411C11.2656 3.23183 11.4562 3.31007 11.6131 3.46733C11.7705 3.6242 11.8486 3.8149 11.8486 4.0393V5.38595H5.38595C5.00468 5.38595 4.61179 5.48279 4.20779 5.67646C3.8038 5.87012 3.47843 6.11518 3.23131 6.41279L1.07732 9.06361V1.88531ZM15.9384 6.18529C15.8153 5.92706 15.6272 5.72939 15.375 5.59214C15.1224 5.45451 14.8449 5.38595 14.5419 5.38595H12.9259V4.0393C12.9259 3.52337 12.7409 3.07999 12.3705 2.70982C11.9999 2.33966 11.5572 2.15451 11.0407 2.15451H6.46327V1.88531C6.46327 1.36886 6.27761 0.925482 5.90744 0.555315C5.53727 0.185148 5.0939 0 4.57796 0H1.88531C1.36886 0 0.925482 0.185148 0.555315 0.555315C0.185148 0.925482 0 1.36886 0 1.88531V9.96391C0 10.4798 0.185148 10.9232 0.555315 11.2934C0.925482 11.6636 1.36886 11.8492 1.88531 11.8492H11.0411C11.417 11.8492 11.8098 11.7524 12.2193 11.5587C12.6287 11.365 12.9542 11.1193 13.1952 10.8223L15.6782 7.76744C15.9359 7.44221 16.065 7.10574 16.065 6.75778C16.065 6.55559 16.0231 6.36489 15.9384 6.18529Z" clip-rule="evenodd"/></svg>