<svg width="9" height="15" viewBox="0 0 9 15" fill="none" xmlns="http://www.w3.org/2000/svg">
<g opacity="0.313779">
<mask id="mask0" mask-type="alpha" maskUnits="userSpaceOnUse" x="0" y="0" width="8" height="14">
<path fill-rule="evenodd" clip-rule="evenodd" d="M0.478027 0.0741577H7.8066V13.1272H0.478027V0.0741577Z" fill="white"/>
</mask>
<g mask="url(#mask0)">
<path fill-rule="evenodd" clip-rule="evenodd" d="M3.94396 11.1912C4.47873 11.1912 4.91197 11.6244 4.91197 12.1592C4.91197 12.6847 4.47873 13.1272 3.94396 13.1272C3.40919 13.1272 2.97595 12.6847 2.97595 12.1592C2.97595 11.6244 3.40919 11.1912 3.94396 11.1912ZM4.20205 0.0741577C6.04584 0.0741577 7.80671 1.06968 7.80671 3.16188C7.80671 4.65575 6.92163 5.43892 6.01833 6.16706C4.93949 7.04323 4.58026 7.39315 4.58026 8.4441V9.05249H3.22512V8.1957C3.22512 6.9231 4.06409 6.18566 4.9949 5.43C5.8796 4.71078 6.41437 4.24033 6.41437 3.23589C6.41437 1.83464 5.32662 1.25375 4.14663 1.25375C2.53341 1.25375 1.79597 2.3233 1.78705 3.57729H0.478027C0.48694 0.968155 2.44118 0.0741577 4.20205 0.0741577Z" fill="#FEFEFE"/>
</g>
</g>
</svg>
