<svg xmlns="http://www.w3.org/2000/svg" width="17" height="17" fill="none" viewBox="0 0 17 17"><path fill="#fff" d="M15.6729 7.63689L16.0704 7.59226L16.0704 7.59219L15.6729 7.63689ZM13.678 6.2673L13.3076 6.41852L13.3078 6.41901L13.678 6.2673ZM14.0891 4.44944L13.8193 4.15412L13.8187 4.15469L14.0891 4.44944ZM14.134 3.89489L13.8197 4.14238L13.8199 4.14261L14.134 3.89489ZM12.9693 2.71863L12.719 3.03068L12.7192 3.03084L12.9693 2.71863ZM12.4104 2.76383L12.1136 2.49568L12.1135 2.49581L12.4104 2.76383ZM10.5767 3.17573L10.4216 3.54441L10.4227 3.54489L10.5767 3.17573ZM9.58383 1.57957L9.18453 1.55585L9.18448 1.5568L9.58383 1.57957ZM9.22295 1.15003L9.26921 0.752718L9.26896 0.752688L9.22295 1.15003ZM7.5688 1.14573L7.61274 1.54331L7.61292 1.54328L7.5688 1.14573ZM7.20498 1.56651L6.80521 1.58007L6.80523 1.58047L7.20498 1.56651ZM6.19812 3.13511L6.34937 3.50541L6.34975 3.50525L6.19812 3.13511ZM4.37813 2.72054L4.67412 2.45148L4.67369 2.45101L4.37813 2.72054ZM3.82331 2.67404L3.57735 2.35859L3.57638 2.35936L3.82331 2.67404ZM2.63399 3.84996L2.94579 4.10051L2.94611 4.10011L2.63399 3.84996ZM2.67782 4.40854L2.40868 4.70446L2.40931 4.70502L2.67782 4.40854ZM3.0889 6.24303L3.45771 6.39787L3.45778 6.3977L3.0889 6.24303ZM1.48932 7.23676L1.47654 7.63676H1.48932V7.23676ZM1.06457 7.59791L0.667462 7.54989L0.667284 7.55141L1.06457 7.59791ZM1.06136 9.2697L0.663833 9.31414L0.663843 9.31422L1.06136 9.2697ZM1.54356 9.63147V10.0316L1.5538 10.0313L1.54356 9.63147ZM3.05635 10.6387L3.42644 10.487L3.42628 10.4866L3.05635 10.6387ZM2.6452 12.4569L2.37485 12.1621L2.37465 12.1623L2.6452 12.4569ZM2.60061 13.0108L2.91531 12.7638L2.91428 12.7625L2.60061 13.0108ZM3.76347 14.1875L3.51258 14.499L3.51274 14.4992L3.76347 14.1875ZM4.32308 14.143L4.61948 14.4116L4.61973 14.4114L4.32308 14.143ZM6.15592 13.7309L6.00109 14.0997L6.0015 14.0999L6.15592 13.7309ZM7.15075 15.3265L7.55005 15.3502L7.55011 15.3491L7.15075 15.3265ZM7.51136 15.756L7.55795 15.3587L7.55679 15.3586L7.51136 15.756ZM9.1655 15.7607L9.1215 15.3631L9.12144 15.3631L9.1655 15.7607ZM9.52932 15.3395L9.92909 15.326L9.92906 15.3251L9.52932 15.3395ZM10.5354 13.7718L10.3841 13.4015L10.3838 13.4016L10.5354 13.7718ZM12.3562 14.1858L12.0605 14.4552L12.0616 14.4564L12.3562 14.1858ZM12.911 14.2323L13.1556 14.5488L13.1578 14.547L12.911 14.2323ZM14.1003 13.0564L13.7887 12.8057L13.7885 12.806L14.1003 13.0564ZM14.0565 12.4975L14.3251 12.2012L14.3249 12.2009L14.0565 12.4975ZM13.6446 10.6636L14.0134 10.8184L14.0135 10.8181L13.6446 10.6636ZM15.1486 9.6669L15.1591 9.2669H15.1486V9.6669ZM15.2394 9.66929L15.2717 9.27059L15.2608 9.26971L15.2499 9.26943L15.2394 9.66929ZM15.6697 9.30868L16.067 9.3555L16.067 9.35538L15.6697 9.30868ZM8.37878 10.5211C7.24752 10.5211 6.32676 9.60018 6.32676 8.46889H5.52676C5.52676 10.0419 6.80559 11.3211 8.37878 11.3211V10.5211ZM6.32676 8.46889C6.32676 7.33738 7.24755 6.41646 8.37878 6.41646V5.61646C6.80557 5.61646 5.52676 6.89569 5.52676 8.46889H6.32676ZM8.37878 6.41646C9.51031 6.41646 10.4311 7.33741 10.4311 8.46889H11.2311C11.2311 6.89566 9.95223 5.61646 8.37878 5.61646V6.41646ZM10.4311 8.46889C10.4311 9.60015 9.51033 10.5211 8.37878 10.5211V11.3211C9.95221 11.3211 11.2311 10.0419 11.2311 8.46889H10.4311ZM16.0704 7.59219C16.0426 7.34437 15.8906 7.16306 15.741 7.05451C15.5903 6.94516 15.3969 6.87471 15.2004 6.87471V7.67471C15.2038 7.67471 15.2143 7.67556 15.2299 7.68086C15.2452 7.68608 15.2597 7.69372 15.2712 7.70205C15.2829 7.71053 15.2866 7.71617 15.2858 7.71505C15.2846 7.71324 15.2777 7.70184 15.2755 7.6816L16.0704 7.59219ZM15.2004 6.87471C14.6848 6.87471 14.2358 6.57362 14.0481 6.1156L13.3078 6.41901C13.6218 7.18498 14.3684 7.67471 15.2004 7.67471V6.87471ZM14.0483 6.11609C13.8561 5.6455 13.9799 5.09246 14.3595 4.74419L13.8187 4.15469C13.1944 4.72746 12.988 5.63571 13.3076 6.41852L14.0483 6.11609ZM14.3589 4.74476C14.6725 4.4583 14.7099 3.97921 14.448 3.64717L13.8199 4.14261C13.8231 4.14662 13.8221 4.15157 13.8193 4.15412L14.3589 4.74476ZM14.4482 3.64739C14.0847 3.18591 13.6714 2.7685 13.2193 2.40642L12.7192 3.03084C13.123 3.35427 13.4934 3.7281 13.8197 4.14238L14.4482 3.64739ZM13.2195 2.40658C12.8873 2.14017 12.4013 2.17721 12.1136 2.49568L12.7072 3.03199C12.7082 3.03088 12.7089 3.03049 12.7094 3.03023C12.7102 3.02985 12.7115 3.02943 12.7132 3.02929C12.7167 3.02902 12.7182 3.03002 12.719 3.03068L13.2195 2.40658ZM12.1135 2.49581C11.7884 2.85601 11.1815 2.99464 10.7308 2.80657L10.4227 3.54489C11.1885 3.86439 12.1563 3.64234 12.7073 3.03185L12.1135 2.49581ZM10.7319 2.80705C10.2558 2.6067 9.95352 2.12253 9.98318 1.60234L9.18448 1.5568C9.13563 2.41352 9.63208 3.21216 10.4216 3.54441L10.7319 2.80705ZM9.98312 1.6033C10.0086 1.17432 9.69463 0.802252 9.26921 0.752718L9.17669 1.54735C9.18238 1.54801 9.18476 1.55207 9.18453 1.55585L9.98312 1.6033ZM9.26896 0.752688C8.68995 0.685648 8.10571 0.683679 7.52468 0.748166L7.61292 1.54328C8.1336 1.4855 8.65737 1.48722 9.17694 1.54738L9.26896 0.752688ZM7.52487 0.748145C7.10342 0.794717 6.7909 1.15809 6.80521 1.58007L7.60475 1.55295C7.60457 1.54751 7.60841 1.54378 7.61274 1.54331L7.52487 0.748145ZM6.80523 1.58047C6.82325 2.09686 6.5164 2.57246 6.04649 2.76496L6.34975 3.50525C7.13324 3.1843 7.63431 2.39966 7.60474 1.55256L6.80523 1.58047ZM6.04686 2.76481C5.60237 2.94637 4.99917 2.80907 4.67412 2.45148L4.08215 2.9896C4.63176 3.59422 5.59176 3.81487 6.34937 3.50541L6.04686 2.76481ZM4.67369 2.45101C4.38744 2.13713 3.90961 2.09953 3.57735 2.3586L4.06926 2.98948C4.07416 2.98567 4.07982 2.98705 4.08258 2.99008L4.67369 2.45101ZM3.57638 2.35936C3.11195 2.72379 2.68934 3.14128 2.32186 3.5998L2.94611 4.10011C3.27481 3.68998 3.65356 3.31568 4.07024 2.98872L3.57638 2.35936ZM2.32218 3.5994C2.05341 3.93387 2.09358 4.41786 2.40869 4.70446L2.94696 4.11263C2.94311 4.10913 2.9432 4.10374 2.94579 4.10051L2.32218 3.5994ZM2.40931 4.70502C2.7961 5.05533 2.91985 5.61176 2.72001 6.08835L3.45778 6.3977C3.78959 5.60639 3.58316 4.68881 2.94634 4.11206L2.40931 4.70502ZM2.72009 6.08818C2.53615 6.52629 2.06684 6.83676 1.48932 6.83676V7.63676C2.34848 7.63676 3.13408 7.16871 3.45771 6.39787L2.72009 6.08818ZM1.5021 6.83696C1.0543 6.82265 0.71708 7.1396 0.667465 7.54989L1.46168 7.64593C1.46261 7.63824 1.46436 7.63453 1.46475 7.63378C1.46511 7.63307 1.46464 7.63419 1.46277 7.63583C1.46079 7.63756 1.45921 7.63815 1.45949 7.63806C1.45976 7.63796 1.46483 7.63618 1.47654 7.63656L1.5021 6.83696ZM0.667284 7.55141C0.599073 8.13419 0.59827 8.7276 0.663833 9.31414L1.45888 9.22527C1.39998 8.69833 1.40082 8.16594 1.46186 7.64441L0.667284 7.55141ZM0.663843 9.31422C0.692153 9.56702 0.850446 9.74856 1.00136 9.85516C1.15399 9.96297 1.34828 10.0315 1.54356 10.0315V9.23147C1.5385 9.23147 1.52606 9.23032 1.50866 9.22454C1.49152 9.21884 1.47546 9.21059 1.46292 9.20173C1.4501 9.19268 1.44617 9.18674 1.44712 9.18813C1.44859 9.19029 1.45638 9.20293 1.45887 9.22519L0.663843 9.31422ZM1.5538 10.0313C2.02459 10.0193 2.49 10.3133 2.68641 10.7909L3.42628 10.4866C3.1065 9.7091 2.34314 9.21084 1.53331 9.2316L1.5538 10.0313ZM2.68626 10.7905C2.879 11.2605 2.75543 11.8131 2.37486 12.1621L2.91555 12.7517C3.54054 12.1786 3.74769 11.2704 3.42644 10.487L2.68626 10.7905ZM2.37465 12.1623C2.06393 12.4476 2.02329 12.9258 2.28695 13.259L2.91428 12.7625C2.91232 12.7601 2.91176 12.7552 2.91575 12.7515L2.37465 12.1623ZM2.28593 13.2577C2.64629 13.7169 3.05989 14.1344 3.51258 14.499L4.01436 13.876C3.60838 13.549 3.23772 13.1747 2.9153 12.7638L2.28593 13.2577ZM3.51274 14.4992C3.84633 14.7675 4.33119 14.7298 4.61948 14.4116L4.02668 13.8744C4.02282 13.8787 4.01775 13.8787 4.01419 13.8758L3.51274 14.4992ZM4.61973 14.4114C4.94728 14.0492 5.55381 13.9119 6.00109 14.0997L6.31075 13.362C5.54636 13.0412 4.57889 13.2639 4.02643 13.8747L4.61973 14.4114ZM6.0015 14.0999C6.4788 14.2996 6.78085 14.7834 6.75139 15.3039L7.55011 15.3491C7.59861 14.4924 7.10245 13.6934 6.31034 13.3619L6.0015 14.0999ZM6.75145 15.3028C6.726 15.7312 7.04006 16.1047 7.46592 16.1534L7.55679 15.3586C7.55538 15.3584 7.55478 15.3582 7.55438 15.3579C7.55376 15.3576 7.55286 15.3569 7.55197 15.3559C7.55108 15.3548 7.55057 15.3538 7.55033 15.3531C7.55016 15.3526 7.54995 15.3518 7.55005 15.3502L6.75145 15.3028ZM7.46477 16.1533C7.7616 16.1881 8.0598 16.2052 8.35847 16.2052V15.4052C8.09034 15.4052 7.82325 15.3899 7.55795 15.3587L7.46477 16.1533ZM8.35847 16.2052C8.64211 16.2052 8.92579 16.1897 9.20957 16.1582L9.12144 15.3631C8.86715 15.3913 8.61289 15.4052 8.35847 15.4052V16.2052ZM9.20951 16.1582C9.63169 16.1115 9.94339 15.7474 9.92909 15.326L9.12955 15.3531C9.12976 15.3591 9.12564 15.3626 9.1215 15.3631L9.20951 16.1582ZM9.92906 15.3251C9.91049 14.8097 10.2177 14.3341 10.6869 14.1419L10.3838 13.4016C9.60131 13.722 9.09905 14.5066 9.12958 15.3539L9.92906 15.3251ZM10.6866 14.1421C11.1345 13.9591 11.7347 14.0975 12.0605 14.4552L12.6519 13.9164C12.1026 13.3134 11.1464 13.0901 10.3841 13.4015L10.6866 14.1421ZM12.0616 14.4564C12.3486 14.7688 12.8233 14.8057 13.1556 14.5488L12.6664 13.9158C12.6642 13.9175 12.6627 13.9181 12.6616 13.9184C12.6603 13.9188 12.6589 13.9189 12.6575 13.9188C12.6561 13.9187 12.655 13.9183 12.6542 13.9179C12.6535 13.9176 12.6524 13.917 12.6507 13.9152L12.0616 14.4564ZM13.1578 14.547C13.6217 14.1832 14.0434 13.766 14.4122 13.3069L13.7885 12.806C13.4579 13.2175 13.0797 13.5916 12.6641 13.9175L13.1578 14.547ZM14.412 13.3072C14.6803 12.9736 14.6424 12.4888 14.3251 12.2012L13.7878 12.7939C13.7911 12.7969 13.7917 12.802 13.7887 12.8057L14.412 13.3072ZM14.3249 12.2009C13.9379 11.8507 13.8138 11.294 14.0134 10.8184L13.2757 10.5088C12.9437 11.3 13.1514 12.2178 13.7881 12.7941L14.3249 12.2009ZM14.0135 10.8181C14.2005 10.3717 14.6587 10.0669 15.1486 10.0669V9.2669C14.3385 9.2669 13.5881 9.76317 13.2757 10.509L14.0135 10.8181ZM15.138 10.0668L15.2288 10.0691L15.2499 9.26943L15.1591 9.26703L15.138 10.0668ZM15.2071 10.068C15.6407 10.1031 16.0174 9.77638 16.067 9.3555L15.2725 9.26187C15.2724 9.26236 15.2717 9.2658 15.2673 9.26951C15.2654 9.27109 15.2643 9.27138 15.2649 9.2712C15.2657 9.2709 15.2683 9.27032 15.2717 9.27059L15.2071 10.068ZM16.067 9.35538C16.1356 8.7719 16.1363 8.17891 16.0704 7.59226L15.2754 7.68152C15.3346 8.20835 15.3338 8.74005 15.2725 9.26199L16.067 9.35538Z" opacity=".424"/></svg>