<svg xmlns="http://www.w3.org/2000/svg" width="13" height="13" fill="none" viewBox="0 0 13 13"><g opacity=".321"><path fill="#B9B9B9" fill-rule="evenodd" d="M5.40879 1.99262C7.19923 1.99262 8.65593 3.44932 8.65593 5.23881C8.65593 7.02925 7.19923 8.48571 5.40879 8.48571C3.61931 8.48571 2.16284 7.02925 2.16284 5.23881C2.16284 3.44932 3.61931 1.99262 5.40879 1.99262ZM11.3602 10.7557L8.77148 8.0634C9.43728 7.27155 9.80206 6.27559 9.80206 5.23881C9.80206 2.81694 7.83162 0.846497 5.40879 0.846497C2.98716 0.846497 1.01672 2.81694 1.01672 5.23881C1.01672 7.66163 2.98716 9.63183 5.40879 9.63183C6.3181 9.63183 7.18539 9.35777 7.92567 8.8364L10.5349 11.5502C10.644 11.6639 10.7904 11.7262 10.9482 11.7262C11.0964 11.7262 11.237 11.6694 11.3445 11.566C11.5729 11.3468 11.5794 10.9842 11.3602 10.7557Z" clip-rule="evenodd"/></g></svg>