<svg xmlns="http://www.w3.org/2000/svg" xmlns:xlink="http://www.w3.org/1999/xlink" width="1920" height="1080" version="1.1" viewBox="0 0 1920 1080"><title>image_not_found</title><desc>Created with Sketch.</desc><g id="image_not_found" fill="none" fill-rule="evenodd" stroke="none" stroke-width="1"><rect id="Rectangle" width="1920" height="1080" x="0" y="0" fill="#444"/><g id="icon" fill="#9B9B9B" fill-rule="nonzero" transform="translate(960.500000, 400.500000) rotate(-90.000000) translate(-960.500000, -400.500000) translate(760.000000, 113.000000)"><rect id="Rectangle" width="16" height="48" x="1" y="456"/><rect id="Rectangle" width="16" height="48" x="1" y="392"/><rect id="Rectangle" width="16" height="48" x="1" y="328"/><rect id="Rectangle" width="16" height="48" x="1" y="519"/><rect id="Rectangle" width="48" height="16" x="281" y="559"/><rect id="Rectangle" width="48" height="16" x="217" y="559"/><rect id="Rectangle" width="16" height="48" x="1" y="264"/><rect id="Rectangle" width="48" height="16" x="24" y="559"/><polygon id="Path" points="33.5 .5 .5 .5 .5 56.5 16.365 56.5 16.365 16.409 33.5 16.409"/><rect id="Rectangle" width="48" height="16" x="50" y="0"/><rect id="Rectangle" width="16" height="48" x="1" y="200"/><rect id="Rectangle" width="48" height="16" x="88" y="559"/><rect id="Rectangle" width="16" height="48" x="1" y="72"/><rect id="Rectangle" width="16" height="48" x="1" y="136"/><rect id="Rectangle" width="48" height="16" x="153" y="559"/><polygon id="Path" points="381 127.556 384.871 130.765 384.871 168 401 168 401 124.346 392.613 116"/><rect id="Rectangle" width="16" height="48" x="385" y="184"/><polygon id="Path" points="241 0 241 16.463 268.079 16.463 278.395 27 290 15.146 275.171 0"/><polygon id="Rectangle" points="289.391 40.969 337.364 40.912 337.345 56.903 289.372 56.96" transform="translate(313.368144, 48.935886) rotate(45.000000) translate(-313.368144, -48.935886)"/><polygon id="Rectangle" points="334.672 85.503 382.645 85.446 382.626 101.437 334.654 101.494" transform="translate(358.649456, 93.470275) rotate(45.000000) translate(-358.649456, -93.470275)"/><rect id="Rectangle" width="16" height="48" x="385" y="248"/><rect id="Rectangle" width="16" height="48" x="385" y="376"/><rect id="Rectangle" width="16" height="48" x="385" y="504"/><rect id="Rectangle" width="48" height="16" x="345" y="559"/><rect id="Rectangle" width="48" height="16" x="178" y="0"/><rect id="Rectangle" width="16" height="48" x="385" y="312"/><rect id="Rectangle" width="48" height="16" x="114" y="0"/><rect id="Rectangle" width="16" height="48" x="385" y="440"/><path id="Shape" d="M307.5,335.267857 L259.508929,287.5 L307.5,239.732143 L247.991071,180.5 L200,228.267857 L152.008929,180.5 L92.5,239.732143 L140.491071,287.5 L92.5,335.267857 L152.008929,394.5 L200,346.732143 L247.991071,394.5 L307.5,335.267857 Z M152.008929,371.571429 L115.535714,335.267857 L163.526786,287.5 L115.535714,239.732143 L152.008929,203.428571 L200,251.196429 L247.991071,203.428571 L284.464286,239.732143 L236.473214,287.5 L284.464286,335.267857 L247.991071,371.571429 L200,323.803571 L152.008929,371.571429 Z"/><rect id="Rectangle" width="36" height="16" x="325" y="128"/><polygon id="Path" points="258 143 301 143 301 126.955 274.045 126.955 274.045 100 258 100"/><rect id="Rectangle" width="16" height="36" x="257" y="40"/></g><path id="IMAGENOTFOUND" fill="#D1D1D1" fill-rule="nonzero" d="M347,843.4 L347,778.2 L361.8,778.2 L361.8,843.4 L347,843.4 Z M406.4,843.4 L406.4,778.2 L422,778.2 L432.9,807.5 L436.8,818.9 L437.2,818.9 L441.1,807.5 L451.7,778.2 L467.3,778.2 L467.3,843.4 L453.5,843.4 L453.5,819.5 C453.5,813.1 454.7,803.6 455.4,797.3 L455,797.3 L449.7,812.4 L439.6,837.7 L433.7,837.7 L423.7,812.4 L418.5,797.3 L418.1,797.3 C418.8,803.6 420,813.1 420,819.5 L420,843.4 L406.4,843.4 Z M525.6,816.4 L539.6,816.4 L538,810.4 C536.2,803.9 534.5,796.2 532.7,789.4 L532.3,789.4 C530.8,796.3 529,803.9 527.2,810.4 L525.6,816.4 Z M546.6,843.4 L542.6,827.9 L522.6,827.9 L518.6,843.4 L503.6,843.4 L524.1,778.2 L541.7,778.2 L562.2,843.4 L546.6,843.4 Z M594.3,811.2 C594.3,789.6 608.7,777 626.4,777 C635.6,777 642.3,781.1 646.7,785.5 L638.6,794.6 C635.3,791.6 632.2,789.7 626.6,789.7 C616.6,789.7 609.4,797.6 609.4,810.7 C609.4,824.1 615.5,831.9 627.8,831.9 C630.4,831.9 633.1,831.2 634.7,829.9 L634.7,818.7 L623.9,818.7 L623.9,806.7 L647.8,806.7 L647.8,836.7 C643.1,840.8 635,844.6 625.9,844.6 C608.3,844.6 594.3,833.1 594.3,811.2 Z M690.4,843.4 L690.4,778.2 L731.3,778.2 L731.3,790.6 L705.2,790.6 L705.2,803.7 L727.4,803.7 L727.4,816 L705.2,816 L705.2,831 L732.3,831 L732.3,843.4 L690.4,843.4 Z M824.6,843.4 L824.6,778.2 L839.7,778.2 L856.7,810.6 L863.2,825 L863.6,825 C862.9,818.1 861.7,808.9 861.7,801.2 L861.7,778.2 L875.7,778.2 L875.7,843.4 L860.6,843.4 L843.6,810.9 L837.2,796.7 L836.8,796.7 C837.5,803.9 838.7,812.6 838.7,820.3 L838.7,843.4 L824.6,843.4 Z M946.9,844.6 C929.4,844.6 917.3,831.8 917.3,810.5 C917.3,789.2 929.4,777 946.9,777 C964.5,777 976.5,789.3 976.5,810.5 C976.5,831.8 964.5,844.6 946.9,844.6 Z M946.9,831.9 C955.8,831.9 961.4,823.6 961.4,810.5 C961.4,797.5 955.8,789.7 946.9,789.7 C938.1,789.7 932.4,797.5 932.4,810.5 C932.4,823.6 938.1,831.9 946.9,831.9 Z M1028.9,843.4 L1028.9,790.6 L1010.9,790.6 L1010.9,778.2 L1061.5,778.2 L1061.5,790.6 L1043.6,790.6 L1043.6,843.4 L1028.9,843.4 Z M1151.2,843.4 L1151.2,778.2 L1192.4,778.2 L1192.4,790.6 L1166,790.6 L1166,805.7 L1188.5,805.7 L1188.5,818.1 L1166,818.1 L1166,843.4 L1151.2,843.4 Z M1258.4,844.6 C1240.9,844.6 1228.8,831.8 1228.8,810.5 C1228.8,789.2 1240.9,777 1258.4,777 C1276,777 1288,789.3 1288,810.5 C1288,831.8 1276,844.6 1258.4,844.6 Z M1258.4,831.9 C1267.3,831.9 1272.9,823.6 1272.9,810.5 C1272.9,797.5 1267.3,789.7 1258.4,789.7 C1249.6,789.7 1243.9,797.5 1243.9,810.5 C1243.9,823.6 1249.6,831.9 1258.4,831.9 Z M1329.3,813.2 L1329.3,778.2 L1344,778.2 L1344,814.7 C1344,827.5 1348,831.9 1355.3,831.9 C1362.6,831.9 1366.9,827.5 1366.9,814.7 L1366.9,778.2 L1381.1,778.2 L1381.1,813.2 C1381.1,835.1 1372.2,844.6 1355.3,844.6 C1338.4,844.6 1329.3,835.1 1329.3,813.2 Z M1425.3,843.4 L1425.3,778.2 L1440.4,778.2 L1457.4,810.6 L1463.9,825 L1464.3,825 C1463.6,818.1 1462.4,808.9 1462.4,801.2 L1462.4,778.2 L1476.4,778.2 L1476.4,843.4 L1461.3,843.4 L1444.3,810.9 L1437.9,796.7 L1437.5,796.7 C1438.2,803.9 1439.4,812.6 1439.4,820.3 L1439.4,843.4 L1425.3,843.4 Z M1521.1,843.4 L1521.1,778.2 L1539.5,778.2 C1559.5,778.2 1572.3,788.1 1572.3,810.5 C1572.3,832.9 1559.5,843.4 1540.4,843.4 L1521.1,843.4 Z M1535.9,831.5 L1538.7,831.5 C1549.7,831.5 1557.2,826.1 1557.2,810.5 C1557.2,794.9 1549.7,790.1 1538.7,790.1 L1535.9,790.1 L1535.9,831.5 Z"/></g></svg>