<svg xmlns="http://www.w3.org/2000/svg" xmlns:xlink="http://www.w3.org/1999/xlink" id="Layer_1" x="0" y="0" version="1.1" viewBox="0 0 1920 1080" xml:space="preserve" style="enable-background:new 0 0 1920 1080"><style type="text/css">.st0,.st1{fill:none;stroke:#fff;stroke-width:19.8676;stroke-linecap:round;stroke-miterlimit:10}.st1{stroke-linejoin:round}</style><g><g><g><path d="M1271.27,614.99c-33.85,143.25-162.54,249.86-316.13,249.86S672.85,758.24,639,614.99" class="st0"/><path d="M640.86,457.51c36.51-139.46,163.37-242.36,314.27-242.36s277.76,102.9,314.27,242.36" class="st0"/></g><polyline points="748.33 397.03 630.75 476.34 613.18 335.45" class="st1"/><polyline points="1167.9 680.91 1279.97 594 1306.82 733.42" class="st1"/></g><g><line x1="794.82" x2="911.48" y1="379.53" y2="496.19" class="st1"/><polyline points="818.52 485.97 923.69 508.06 923.75 508.01 901.65 402.84" class="st1"/><line x1="1113.93" x2="997.27" y1="697.85" y2="581.2" class="st1"/><polyline points="1090.23 591.41 985.06 569.32 985 569.37 1007.1 674.54" class="st1"/><line x1="1112.18" x2="995.52" y1="380.5" y2="497.16" class="st1"/><polyline points="1005.74 404.2 983.64 509.37 983.7 509.42 1088.87 487.33" class="st1"/><line x1="793.85" x2="910.51" y1="699.6" y2="582.94" class="st1"/><polyline points="900.29 675.91 922.38 570.74 922.33 570.68 817.16 592.78" class="st1"/></g></g></svg>