<?xml version="1.0" encoding="utf-8"?>
<!-- Generator: Adobe Illustrator 23.0.3, SVG Export Plug-In . SVG Version: 6.00 Build 0)  -->
<svg version="1.1" id="Layer_1" xmlns="http://www.w3.org/2000/svg" xmlns:xlink="http://www.w3.org/1999/xlink" x="0px" y="0px"
	 viewBox="0 0 1920 1080" style="enable-background:new 0 0 1920 1080;" xml:space="preserve">
<style type="text/css">
	.st0{fill:none;stroke:#FFFFFF;stroke-width:19.8676;stroke-linecap:round;stroke-miterlimit:10;}
	.st1{fill:none;stroke:#FFFFFF;stroke-width:19.8676;stroke-linecap:round;stroke-linejoin:round;stroke-miterlimit:10;}
</style>
<g>
	<g>
		<g>
			<path class="st0" d="M1271.27,614.99c-33.85,143.25-162.54,249.86-316.13,249.86S672.85,758.24,639,614.99"/>
			<path class="st0" d="M640.86,457.51c36.51-139.46,163.37-242.36,314.27-242.36s277.76,102.9,314.27,242.36"/>
		</g>
		<polyline class="st1" points="748.33,397.03 630.75,476.34 613.18,335.45 		"/>
		<polyline class="st1" points="1167.9,680.91 1279.97,594 1306.82,733.42 		"/>
	</g>
	<g>
		<line class="st1" x1="794.82" y1="379.53" x2="911.48" y2="496.19"/>
		<polyline class="st1" points="818.52,485.97 923.69,508.06 923.75,508.01 901.65,402.84 		"/>
		<line class="st1" x1="1113.93" y1="697.85" x2="997.27" y2="581.2"/>
		<polyline class="st1" points="1090.23,591.41 985.06,569.32 985,569.37 1007.1,674.54 		"/>
		<line class="st1" x1="1112.18" y1="380.5" x2="995.52" y2="497.16"/>
		<polyline class="st1" points="1005.74,404.2 983.64,509.37 983.7,509.42 1088.87,487.33 		"/>
		<line class="st1" x1="793.85" y1="699.6" x2="910.51" y2="582.94"/>
		<polyline class="st1" points="900.29,675.91 922.38,570.74 922.33,570.68 817.16,592.78 		"/>
	</g>
</g>
</svg>
