<?xml version="1.0" encoding="utf-8"?>
<!-- Generator: Adobe Illustrator 23.0.3, SVG Export Plug-In . SVG Version: 6.00 Build 0)  -->
<svg version="1.1" id="Layer_1" xmlns="http://www.w3.org/2000/svg" xmlns:xlink="http://www.w3.org/1999/xlink" x="0px" y="0px"
	 viewBox="0 0 1920 1080" style="enable-background:new 0 0 1920 1080;" xml:space="preserve">
<style type="text/css">
	.st0{fill:none;stroke:#FFFFFF;stroke-width:19.8676;stroke-linecap:round;stroke-miterlimit:10;}
	.st1{fill:none;stroke:#FFFFFF;stroke-width:19.8676;stroke-linecap:round;stroke-linejoin:round;stroke-miterlimit:10;}
</style>
<g>
	<g>
		<g>
			<path class="st0" d="M648.73,614.99c33.85,143.25,162.54,249.86,316.13,249.86S1247.15,758.24,1281,614.99"/>
			<path class="st0" d="M1279.14,457.51c-36.51-139.46-163.37-242.36-314.27-242.36S687.1,318.05,650.6,457.51"/>
		</g>
		<polyline class="st1" points="1171.67,397.03 1289.25,476.34 1306.82,335.45 		"/>
		<polyline class="st1" points="752.1,680.91 640.03,594 613.18,733.42 		"/>
	</g>
	<g>
		<line class="st1" x1="1125.18" y1="379.53" x2="1008.52" y2="496.19"/>
		<polyline class="st1" points="1101.48,485.97 996.31,508.06 996.25,508.01 1018.35,402.84 		"/>
		<line class="st1" x1="806.07" y1="697.85" x2="922.73" y2="581.2"/>
		<polyline class="st1" points="829.77,591.41 934.94,569.32 935,569.37 912.9,674.54 		"/>
		<line class="st1" x1="807.82" y1="380.5" x2="924.48" y2="497.16"/>
		<polyline class="st1" points="914.26,404.2 936.36,509.37 936.3,509.42 831.13,487.33 		"/>
		<line class="st1" x1="1126.15" y1="699.6" x2="1009.49" y2="582.94"/>
		<polyline class="st1" points="1019.71,675.91 997.62,570.74 997.67,570.68 1102.84,592.78 		"/>
	</g>
</g>
</svg>
