<svg xmlns="http://www.w3.org/2000/svg" xmlns:xlink="http://www.w3.org/1999/xlink" id="Layer_1" x="0" y="0" version="1.1" viewBox="0 0 1920 1080" xml:space="preserve" style="enable-background:new 0 0 1920 1080"><style type="text/css">.st0,.st1{fill:none;stroke:#fff;stroke-width:19.8676;stroke-linecap:round;stroke-miterlimit:10}.st1{stroke-linejoin:round}</style><g><g><g><path d="M648.73,614.99c33.85,143.25,162.54,249.86,316.13,249.86S1247.15,758.24,1281,614.99" class="st0"/><path d="M1279.14,457.51c-36.51-139.46-163.37-242.36-314.27-242.36S687.1,318.05,650.6,457.51" class="st0"/></g><polyline points="1171.67 397.03 1289.25 476.34 1306.82 335.45" class="st1"/><polyline points="752.1 680.91 640.03 594 613.18 733.42" class="st1"/></g><g><line x1="1125.18" x2="1008.52" y1="379.53" y2="496.19" class="st1"/><polyline points="1101.48 485.97 996.31 508.06 996.25 508.01 1018.35 402.84" class="st1"/><line x1="806.07" x2="922.73" y1="697.85" y2="581.2" class="st1"/><polyline points="829.77 591.41 934.94 569.32 935 569.37 912.9 674.54" class="st1"/><line x1="807.82" x2="924.48" y1="380.5" y2="497.16" class="st1"/><polyline points="914.26 404.2 936.36 509.37 936.3 509.42 831.13 487.33" class="st1"/><line x1="1126.15" x2="1009.49" y1="699.6" y2="582.94" class="st1"/><polyline points="1019.71 675.91 997.62 570.74 997.67 570.68 1102.84 592.78" class="st1"/></g></g></svg>