<svg xmlns="http://www.w3.org/2000/svg" xmlns:xlink="http://www.w3.org/1999/xlink" id="Layer_1" x="0" y="0" version="1.1" viewBox="0 0 1920 1080" xml:space="preserve" style="enable-background:new 0 0 1920 1080"><style type="text/css">.st0,.st1{fill:none;stroke:#fff;stroke-width:19.8676;stroke-linecap:round;stroke-miterlimit:10}.st1{stroke-linejoin:round}</style><g><g><g><path d="M648.73,614.99c33.85,143.25,162.54,249.86,316.13,249.86S1247.15,758.24,1281,614.99" class="st0"/><path d="M1279.14,457.51c-36.51-139.46-163.37-242.36-314.27-242.36S687.1,318.05,650.6,457.51" class="st0"/></g><polyline points="1171.67 397.03 1289.25 476.34 1306.82 335.45" class="st1"/><polyline points="752.1 680.91 640.03 594 613.18 733.42" class="st1"/></g><line x1="996.25" x2="1112.91" y1="508.06" y2="391.4" class="st1"/><polyline points="1019.95 401.62 1125.12 379.53 1125.18 379.58 1103.08 484.75" class="st1"/><line x1="935" x2="818.34" y1="571.07" y2="687.73" class="st1"/><polyline points="911.3 677.51 806.13 699.6 806.07 699.55 828.17 594.38" class="st1"/><line x1="936.36" x2="819.7" y1="509.42" y2="392.77" class="st1"/><polyline points="829.92 485.73 807.82 380.56 807.88 380.5 913.05 402.6" class="st1"/><line x1="997.62" x2="1114.28" y1="569.32" y2="685.98" class="st1"/><polyline points="1104.06 593.02 1126.15 698.19 1126.1 698.24 1020.93 676.15" class="st1"/></g></svg>