<svg xmlns="http://www.w3.org/2000/svg" xmlns:xlink="http://www.w3.org/1999/xlink" id="Layer_1" x="0" y="0" version="1.1" viewBox="0 0 1920 1080" xml:space="preserve" style="enable-background:new 0 0 1920 1080"><style type="text/css">.st0,.st1{fill:none;stroke:#fff;stroke-width:19.8676;stroke-linecap:round;stroke-miterlimit:10}.st1{stroke-linejoin:round}</style><g><g><g><path d="M1271.27,614.99c-33.85,143.25-162.54,249.86-316.13,249.86S672.85,758.24,639,614.99" class="st0"/><path d="M640.86,457.51c36.51-139.46,163.37-242.36,314.27-242.36s277.76,102.9,314.27,242.36" class="st0"/></g><polyline points="748.33 397.03 630.75 476.34 613.18 335.45" class="st1"/><polyline points="1167.9 680.91 1279.97 594 1306.82 733.42" class="st1"/></g><line x1="923.75" x2="807.09" y1="508.06" y2="391.4" class="st1"/><polyline points="900.05 401.62 794.88 379.53 794.82 379.58 816.92 484.75" class="st1"/><line x1="985" x2="1101.66" y1="571.07" y2="687.73" class="st1"/><polyline points="1008.7 677.51 1113.87 699.6 1113.93 699.55 1091.83 594.38" class="st1"/><line x1="983.64" x2="1100.3" y1="509.42" y2="392.77" class="st1"/><polyline points="1090.08 485.73 1112.18 380.56 1112.12 380.5 1006.95 402.6" class="st1"/><line x1="922.38" x2="805.72" y1="569.32" y2="685.98" class="st1"/><polyline points="815.94 593.02 793.85 698.19 793.9 698.24 899.07 676.15" class="st1"/></g></svg>