<?xml version="1.0" encoding="utf-8"?>
<!-- Generator: Adobe Illustrator 23.0.3, SVG Export Plug-In . SVG Version: 6.00 Build 0)  -->
<svg version="1.1" id="Layer_1" xmlns="http://www.w3.org/2000/svg" xmlns:xlink="http://www.w3.org/1999/xlink" x="0px" y="0px"
	 viewBox="0 0 1920 1080" style="enable-background:new 0 0 1920 1080;" xml:space="preserve">
<style type="text/css">
	.st0{fill:none;stroke:#FFFFFF;stroke-width:19.8676;stroke-linecap:round;stroke-miterlimit:10;}
	.st1{fill:none;stroke:#FFFFFF;stroke-width:19.8676;stroke-linecap:round;stroke-linejoin:round;stroke-miterlimit:10;}
</style>
<g>
	<g>
		<g>
			<path class="st0" d="M1271.27,614.99c-33.85,143.25-162.54,249.86-316.13,249.86S672.85,758.24,639,614.99"/>
			<path class="st0" d="M640.86,457.51c36.51-139.46,163.37-242.36,314.27-242.36s277.76,102.9,314.27,242.36"/>
		</g>
		<polyline class="st1" points="748.33,397.03 630.75,476.34 613.18,335.45 		"/>
		<polyline class="st1" points="1167.9,680.91 1279.97,594 1306.82,733.42 		"/>
	</g>
	<line class="st1" x1="923.75" y1="508.06" x2="807.09" y2="391.4"/>
	<polyline class="st1" points="900.05,401.62 794.88,379.53 794.82,379.58 816.92,484.75 	"/>
	<line class="st1" x1="985" y1="571.07" x2="1101.66" y2="687.73"/>
	<polyline class="st1" points="1008.7,677.51 1113.87,699.6 1113.93,699.55 1091.83,594.38 	"/>
	<line class="st1" x1="983.64" y1="509.42" x2="1100.3" y2="392.77"/>
	<polyline class="st1" points="1090.08,485.73 1112.18,380.56 1112.12,380.5 1006.95,402.6 	"/>
	<line class="st1" x1="922.38" y1="569.32" x2="805.72" y2="685.98"/>
	<polyline class="st1" points="815.94,593.02 793.85,698.19 793.9,698.24 899.07,676.15 	"/>
</g>
</svg>
